<mxfile host="app.diagrams.net" modified="2020-11-24T10:33:38.512Z" agent="5.0 (Macintosh; Intel Mac OS X 10_15_7) AppleWebKit/605.1.15 (KHTML, like Gecko) Version/13.1.3 Safari/605.1.15" etag="HgWcfVmaXzCP8fqLy-gY" version="13.10.0" type="github">
  <diagram id="UUgaOf1F6qNWSPvY_eEi" name="Page-1">
    <mxGraphModel dx="946" dy="662" grid="1" gridSize="10" guides="1" tooltips="1" connect="1" arrows="1" fold="1" page="1" pageScale="1" pageWidth="827" pageHeight="1169" math="0" shadow="0">
      <root>
        <mxCell id="0" />
        <mxCell id="1" parent="0" />
        <mxCell id="LLyH-jrI4SZby10niK_6-6" value="eu-central-1" style="outlineConnect=0;gradientColor=none;html=1;whiteSpace=wrap;fontSize=12;fontStyle=0;shape=mxgraph.aws4.group;grIcon=mxgraph.aws4.group_region;strokeColor=#879196;fillColor=none;verticalAlign=top;align=left;spacingLeft=30;fontColor=#879196;dashed=1;" parent="1" vertex="1">
          <mxGeometry x="40" y="80" width="760" height="580" as="geometry" />
        </mxCell>
        <mxCell id="LLyH-jrI4SZby10niK_6-10" value="eu-central-1a" style="outlineConnect=0;gradientColor=none;html=1;whiteSpace=wrap;fontSize=12;fontStyle=0;shape=mxgraph.aws4.group;grIcon=mxgraph.aws4.group_availability_zone;strokeColor=#545B64;fillColor=none;verticalAlign=top;align=left;spacingLeft=30;fontColor=#545B64;dashed=1;" parent="1" vertex="1">
          <mxGeometry x="50" y="150" width="510" height="500" as="geometry" />
        </mxCell>
        <mxCell id="OXB0Sn-YbdVNyxZLLh_s-15" value="eu-central-1b" style="outlineConnect=0;gradientColor=none;html=1;whiteSpace=wrap;fontSize=12;fontStyle=0;shape=mxgraph.aws4.group;grIcon=mxgraph.aws4.group_availability_zone;strokeColor=#545B64;fillColor=none;verticalAlign=top;align=left;spacingLeft=30;fontColor=#545B64;dashed=1;" vertex="1" parent="1">
          <mxGeometry x="566" y="150" width="220" height="500" as="geometry" />
        </mxCell>
        <mxCell id="FU5zcwVCU_c94r31TygK-25" value="&lt;b&gt;VPC &lt;br&gt;PROD&lt;/b&gt;" style="outlineConnect=0;html=1;whiteSpace=wrap;fontSize=12;fontStyle=0;shape=mxgraph.aws4.group;grIcon=mxgraph.aws4.group_vpc;strokeColor=#666666;fillColor=#f5f5f5;verticalAlign=top;align=left;spacingLeft=30;dashed=0;fillOpacity=60;fontColor=#333333;" parent="1" vertex="1">
          <mxGeometry x="340" y="180" width="440" height="460" as="geometry" />
        </mxCell>
        <mxCell id="LLyH-jrI4SZby10niK_6-5" value="&lt;b&gt;VPC &lt;br&gt;DEV&lt;/b&gt;" style="outlineConnect=0;html=1;whiteSpace=wrap;fontSize=12;fontStyle=0;shape=mxgraph.aws4.group;grIcon=mxgraph.aws4.group_vpc;strokeColor=#666666;fillColor=#f5f5f5;verticalAlign=top;align=left;spacingLeft=30;dashed=0;fillOpacity=60;fontColor=#333333;" parent="1" vertex="1">
          <mxGeometry x="60" y="180" width="270" height="460" as="geometry" />
        </mxCell>
        <mxCell id="LLyH-jrI4SZby10niK_6-4" value="&lt;b&gt;Subnet &lt;br&gt;DEV&lt;/b&gt;" style="outlineConnect=0;gradientColor=none;html=1;whiteSpace=wrap;fontSize=12;fontStyle=0;shape=mxgraph.aws4.group;grIcon=mxgraph.aws4.group_subnet;strokeColor=#879196;fillColor=none;verticalAlign=top;align=left;spacingLeft=30;fontColor=#879196;dashed=0;" parent="1" vertex="1">
          <mxGeometry x="70" y="280" width="250" height="350" as="geometry" />
        </mxCell>
        <mxCell id="LLyH-jrI4SZby10niK_6-27" style="edgeStyle=orthogonalEdgeStyle;rounded=0;orthogonalLoop=1;jettySize=auto;html=1;exitX=1;exitY=0.5;exitDx=0;exitDy=0;exitPerimeter=0;entryX=0;entryY=0.5;entryDx=0;entryDy=0;entryPerimeter=0;" parent="1" source="LLyH-jrI4SZby10niK_6-2" target="LLyH-jrI4SZby10niK_6-19" edge="1">
          <mxGeometry relative="1" as="geometry" />
        </mxCell>
        <mxCell id="LLyH-jrI4SZby10niK_6-2" value="Internet gateway" style="outlineConnect=0;dashed=0;verticalLabelPosition=bottom;verticalAlign=top;align=center;html=1;shape=mxgraph.aws3.internet_gateway;fillColor=#F58534;gradientColor=none;" parent="1" vertex="1">
          <mxGeometry x="150" y="200" width="28.75" height="30" as="geometry" />
        </mxCell>
        <mxCell id="LLyH-jrI4SZby10niK_6-28" style="edgeStyle=orthogonalEdgeStyle;rounded=0;orthogonalLoop=1;jettySize=auto;html=1;exitX=0.92;exitY=0.5;exitDx=0;exitDy=0;exitPerimeter=0;entryX=0.5;entryY=0;entryDx=0;entryDy=0;entryPerimeter=0;" parent="1" source="LLyH-jrI4SZby10niK_6-12" target="LLyH-jrI4SZby10niK_6-2" edge="1">
          <mxGeometry relative="1" as="geometry" />
        </mxCell>
        <mxCell id="LLyH-jrI4SZby10niK_6-12" value="" style="aspect=fixed;pointerEvents=1;shadow=0;dashed=0;html=1;strokeColor=none;labelPosition=center;verticalLabelPosition=bottom;verticalAlign=top;align=center;fillColor=#00188D;shape=mxgraph.azure.laptop" parent="1" vertex="1">
          <mxGeometry x="50" y="30" width="66.66" height="40" as="geometry" />
        </mxCell>
        <mxCell id="LLyH-jrI4SZby10niK_6-16" value="&lt;b&gt;Subnet&lt;br&gt;PROD&lt;/b&gt;" style="outlineConnect=0;gradientColor=none;html=1;whiteSpace=wrap;fontSize=12;fontStyle=0;shape=mxgraph.aws4.group;grIcon=mxgraph.aws4.group_subnet;strokeColor=#879196;fillColor=none;verticalAlign=top;align=left;spacingLeft=30;fontColor=#879196;dashed=0;" parent="1" vertex="1">
          <mxGeometry x="350" y="280" width="200" height="350" as="geometry" />
        </mxCell>
        <mxCell id="LLyH-jrI4SZby10niK_6-24" style="edgeStyle=orthogonalEdgeStyle;rounded=0;orthogonalLoop=1;jettySize=auto;html=1;exitX=0.5;exitY=1;exitDx=0;exitDy=0;exitPerimeter=0;" parent="1" source="LLyH-jrI4SZby10niK_6-19" target="LLyH-jrI4SZby10niK_6-4" edge="1">
          <mxGeometry relative="1" as="geometry" />
        </mxCell>
        <mxCell id="LLyH-jrI4SZby10niK_6-19" value="Route table&lt;br&gt;public" style="outlineConnect=0;dashed=0;verticalLabelPosition=middle;verticalAlign=middle;align=left;html=1;shape=mxgraph.aws3.route_table;fillColor=#F58536;gradientColor=none;labelPosition=right;" parent="1" vertex="1">
          <mxGeometry x="223.02" y="204.5" width="23.71" height="21" as="geometry" />
        </mxCell>
        <mxCell id="mmzX4yjb0Bl6ZRDBmCqj-1" value="Security Group" style="fontStyle=0;verticalAlign=top;align=center;spacingTop=-2;fillColor=#fff2cc;rounded=0;whiteSpace=wrap;html=1;strokeColor=#d6b656;strokeWidth=2;dashed=1;container=1;collapsible=0;expand=0;recursiveResize=0;" parent="1" vertex="1">
          <mxGeometry x="90" y="423.5" width="80" height="120" as="geometry" />
        </mxCell>
        <mxCell id="mmzX4yjb0Bl6ZRDBmCqj-2" value="" style="outlineConnect=0;dashed=0;verticalLabelPosition=bottom;verticalAlign=top;align=center;html=1;shape=mxgraph.aws3.ec2;fillColor=#F58534;gradientColor=none;" parent="mmzX4yjb0Bl6ZRDBmCqj-1" vertex="1">
          <mxGeometry x="23.999999999999996" y="74" width="32.9" height="40" as="geometry" />
        </mxCell>
        <mxCell id="mmzX4yjb0Bl6ZRDBmCqj-3" value="" style="shape=image;html=1;verticalAlign=top;verticalLabelPosition=bottom;labelBackgroundColor=#ffffff;imageAspect=0;aspect=fixed;image=https://cdn2.iconfinder.com/data/icons/nodejs-1/128/nodejs-128.png" parent="mmzX4yjb0Bl6ZRDBmCqj-1" vertex="1">
          <mxGeometry x="16.45" y="30" width="48" height="48" as="geometry" />
        </mxCell>
        <mxCell id="FU5zcwVCU_c94r31TygK-11" style="edgeStyle=orthogonalEdgeStyle;rounded=0;orthogonalLoop=1;jettySize=auto;html=1;exitX=0.5;exitY=1;exitDx=0;exitDy=0;exitPerimeter=0;entryX=0.5;entryY=0;entryDx=0;entryDy=0;" parent="1" source="FU5zcwVCU_c94r31TygK-13" target="FU5zcwVCU_c94r31TygK-1" edge="1">
          <mxGeometry relative="1" as="geometry">
            <Array as="points">
              <mxPoint x="497" y="390" />
              <mxPoint x="404" y="390" />
            </Array>
          </mxGeometry>
        </mxCell>
        <mxCell id="FU5zcwVCU_c94r31TygK-16" value="AMI" style="outlineConnect=0;dashed=0;verticalLabelPosition=bottom;verticalAlign=top;align=center;html=1;shape=mxgraph.aws3.ami;fillColor=#F58534;gradientColor=none;" parent="1" vertex="1">
          <mxGeometry x="479.56999999999994" y="91" width="31.43" height="33" as="geometry" />
        </mxCell>
        <mxCell id="FU5zcwVCU_c94r31TygK-31" style="edgeStyle=orthogonalEdgeStyle;rounded=0;orthogonalLoop=1;jettySize=auto;html=1;exitX=0.5;exitY=1;exitDx=0;exitDy=0;exitPerimeter=0;labelBackgroundColor=none;align=center;" parent="1" source="FU5zcwVCU_c94r31TygK-26" target="LLyH-jrI4SZby10niK_6-16" edge="1">
          <mxGeometry relative="1" as="geometry" />
        </mxCell>
        <mxCell id="OXB0Sn-YbdVNyxZLLh_s-12" style="edgeStyle=orthogonalEdgeStyle;rounded=0;orthogonalLoop=1;jettySize=auto;html=1;exitX=0.5;exitY=1;exitDx=0;exitDy=0;exitPerimeter=0;" edge="1" parent="1" source="FU5zcwVCU_c94r31TygK-26" target="OXB0Sn-YbdVNyxZLLh_s-2">
          <mxGeometry relative="1" as="geometry" />
        </mxCell>
        <mxCell id="FU5zcwVCU_c94r31TygK-26" value="Route table&lt;br&gt;public" style="outlineConnect=0;dashed=0;verticalLabelPosition=middle;verticalAlign=middle;align=left;html=1;shape=mxgraph.aws3.route_table;fillColor=#F58536;gradientColor=none;labelPosition=right;" parent="1" vertex="1">
          <mxGeometry x="480" y="204.5" width="23.71" height="21" as="geometry" />
        </mxCell>
        <mxCell id="FU5zcwVCU_c94r31TygK-32" style="edgeStyle=orthogonalEdgeStyle;rounded=0;orthogonalLoop=1;jettySize=auto;html=1;exitX=1;exitY=0.5;exitDx=0;exitDy=0;exitPerimeter=0;entryX=0;entryY=0.5;entryDx=0;entryDy=0;entryPerimeter=0;labelBackgroundColor=none;strokeColor=#000000;fontColor=#000000;align=center;" parent="1" source="FU5zcwVCU_c94r31TygK-28" target="FU5zcwVCU_c94r31TygK-26" edge="1">
          <mxGeometry relative="1" as="geometry" />
        </mxCell>
        <mxCell id="FU5zcwVCU_c94r31TygK-28" value="Internet gateway" style="outlineConnect=0;dashed=0;verticalLabelPosition=bottom;verticalAlign=top;align=center;html=1;shape=mxgraph.aws3.internet_gateway;fillColor=#F58534;gradientColor=none;" parent="1" vertex="1">
          <mxGeometry x="415.75" y="200" width="28.75" height="30" as="geometry" />
        </mxCell>
        <mxCell id="FU5zcwVCU_c94r31TygK-29" style="edgeStyle=orthogonalEdgeStyle;rounded=0;orthogonalLoop=1;jettySize=auto;html=1;exitX=0.92;exitY=0.5;exitDx=0;exitDy=0;exitPerimeter=0;entryX=0.5;entryY=0;entryDx=0;entryDy=0;entryPerimeter=0;" parent="1" source="LLyH-jrI4SZby10niK_6-12" target="FU5zcwVCU_c94r31TygK-28" edge="1">
          <mxGeometry relative="1" as="geometry">
            <mxPoint x="121.32719999999995" y="60" as="sourcePoint" />
            <mxPoint x="154.375" y="210" as="targetPoint" />
            <Array as="points">
              <mxPoint x="250" y="50" />
              <mxPoint x="250" y="160" />
              <mxPoint x="430" y="160" />
            </Array>
          </mxGeometry>
        </mxCell>
        <mxCell id="mmzX4yjb0Bl6ZRDBmCqj-4" value="Security Group" style="fontStyle=0;verticalAlign=top;align=center;spacingTop=-2;fillColor=#fff2cc;rounded=0;whiteSpace=wrap;html=1;strokeColor=#d6b656;strokeWidth=2;dashed=1;container=1;collapsible=0;expand=0;recursiveResize=0;" parent="1" vertex="1">
          <mxGeometry x="210" y="423.5" width="80" height="120" as="geometry" />
        </mxCell>
        <mxCell id="mmzX4yjb0Bl6ZRDBmCqj-5" value="" style="outlineConnect=0;dashed=0;verticalLabelPosition=bottom;verticalAlign=top;align=center;html=1;shape=mxgraph.aws3.ec2;fillColor=#F58534;gradientColor=none;" parent="mmzX4yjb0Bl6ZRDBmCqj-4" vertex="1">
          <mxGeometry x="23.999999999999996" y="74" width="32.9" height="40" as="geometry" />
        </mxCell>
        <mxCell id="mmzX4yjb0Bl6ZRDBmCqj-6" value="" style="shape=image;html=1;verticalAlign=top;verticalLabelPosition=bottom;labelBackgroundColor=#ffffff;imageAspect=0;aspect=fixed;image=https://cdn2.iconfinder.com/data/icons/nodejs-1/128/nodejs-128.png" parent="mmzX4yjb0Bl6ZRDBmCqj-4" vertex="1">
          <mxGeometry x="16.45" y="30" width="48" height="48" as="geometry" />
        </mxCell>
        <mxCell id="OXB0Sn-YbdVNyxZLLh_s-2" value="&lt;b&gt;Subnet&lt;br&gt;PROD&lt;/b&gt;" style="outlineConnect=0;gradientColor=none;html=1;whiteSpace=wrap;fontSize=12;fontStyle=0;shape=mxgraph.aws4.group;grIcon=mxgraph.aws4.group_subnet;strokeColor=#879196;fillColor=none;verticalAlign=top;align=left;spacingLeft=30;fontColor=#879196;dashed=0;" vertex="1" parent="1">
          <mxGeometry x="574" y="280" width="200" height="350" as="geometry" />
        </mxCell>
        <mxCell id="OXB0Sn-YbdVNyxZLLh_s-14" value="" style="rounded=1;arcSize=10;dashed=1;strokeColor=#F59D56;fillColor=none;gradientColor=none;dashPattern=8 4;strokeWidth=2;" vertex="1" parent="1">
          <mxGeometry x="357.5" y="400" width="409.5" height="210" as="geometry" />
        </mxCell>
        <mxCell id="OXB0Sn-YbdVNyxZLLh_s-13" value="&lt;b&gt;ASG&lt;/b&gt;" style="outlineConnect=0;fontColor=#232F3E;gradientColor=none;fillColor=#D05C17;strokeColor=none;dashed=0;verticalLabelPosition=bottom;verticalAlign=top;align=center;html=1;fontSize=12;fontStyle=0;aspect=fixed;pointerEvents=1;shape=mxgraph.aws4.auto_scaling2;" vertex="1" parent="1">
          <mxGeometry x="537" y="541.5" width="40" height="40" as="geometry" />
        </mxCell>
        <mxCell id="OXB0Sn-YbdVNyxZLLh_s-21" value="Sec&lt;br&gt;Group" style="fontStyle=0;verticalAlign=top;align=left;spacingTop=-2;fillColor=#fff2cc;rounded=0;whiteSpace=wrap;html=1;strokeColor=#d6b656;strokeWidth=2;dashed=1;container=1;collapsible=0;expand=0;recursiveResize=0;" vertex="1" parent="1">
          <mxGeometry x="430" y="310" width="92.62" height="70" as="geometry" />
        </mxCell>
        <mxCell id="OXB0Sn-YbdVNyxZLLh_s-25" style="edgeStyle=orthogonalEdgeStyle;rounded=0;orthogonalLoop=1;jettySize=auto;html=1;exitX=0.5;exitY=1;exitDx=0;exitDy=0;exitPerimeter=0;" edge="1" parent="1" source="FU5zcwVCU_c94r31TygK-13" target="FU5zcwVCU_c94r31TygK-4">
          <mxGeometry relative="1" as="geometry">
            <Array as="points">
              <mxPoint x="497" y="390" />
              <mxPoint x="487" y="390" />
            </Array>
          </mxGeometry>
        </mxCell>
        <mxCell id="OXB0Sn-YbdVNyxZLLh_s-26" style="edgeStyle=orthogonalEdgeStyle;rounded=0;orthogonalLoop=1;jettySize=auto;html=1;exitX=0.5;exitY=1;exitDx=0;exitDy=0;exitPerimeter=0;entryX=0.5;entryY=0;entryDx=0;entryDy=0;" edge="1" parent="1" source="FU5zcwVCU_c94r31TygK-13" target="OXB0Sn-YbdVNyxZLLh_s-3">
          <mxGeometry relative="1" as="geometry">
            <Array as="points">
              <mxPoint x="497" y="390" />
              <mxPoint x="628" y="390" />
            </Array>
          </mxGeometry>
        </mxCell>
        <mxCell id="OXB0Sn-YbdVNyxZLLh_s-27" style="edgeStyle=orthogonalEdgeStyle;rounded=0;orthogonalLoop=1;jettySize=auto;html=1;exitX=0.5;exitY=1;exitDx=0;exitDy=0;exitPerimeter=0;entryX=0.5;entryY=0;entryDx=0;entryDy=0;" edge="1" parent="1" source="FU5zcwVCU_c94r31TygK-13" target="OXB0Sn-YbdVNyxZLLh_s-6">
          <mxGeometry relative="1" as="geometry">
            <Array as="points">
              <mxPoint x="497" y="390" />
              <mxPoint x="718" y="390" />
            </Array>
          </mxGeometry>
        </mxCell>
        <mxCell id="FU5zcwVCU_c94r31TygK-13" value="&lt;b&gt;ALB&lt;/b&gt;" style="outlineConnect=0;dashed=0;verticalLabelPosition=bottom;verticalAlign=top;align=right;html=1;shape=mxgraph.aws3.classic_load_balancer;fillColor=#F58534;gradientColor=none;labelPosition=left;" parent="1" vertex="1">
          <mxGeometry x="482.63" y="320" width="28.75" height="30" as="geometry" />
        </mxCell>
        <mxCell id="FU5zcwVCU_c94r31TygK-1" value="Security Group" style="fontStyle=0;verticalAlign=top;align=center;spacingTop=-2;fillColor=#fff2cc;rounded=0;whiteSpace=wrap;html=1;strokeColor=#d6b656;strokeWidth=2;dashed=1;container=1;collapsible=0;expand=0;recursiveResize=0;" parent="1" vertex="1">
          <mxGeometry x="364" y="421.5" width="80" height="120" as="geometry" />
        </mxCell>
        <mxCell id="FU5zcwVCU_c94r31TygK-2" value="" style="outlineConnect=0;dashed=0;verticalLabelPosition=bottom;verticalAlign=top;align=center;html=1;shape=mxgraph.aws3.ec2;fillColor=#F58534;gradientColor=none;" parent="FU5zcwVCU_c94r31TygK-1" vertex="1">
          <mxGeometry x="23.999999999999996" y="74" width="32.9" height="40" as="geometry" />
        </mxCell>
        <mxCell id="FU5zcwVCU_c94r31TygK-3" value="" style="shape=image;html=1;verticalAlign=top;verticalLabelPosition=bottom;labelBackgroundColor=#ffffff;imageAspect=0;aspect=fixed;image=https://cdn2.iconfinder.com/data/icons/nodejs-1/128/nodejs-128.png" parent="FU5zcwVCU_c94r31TygK-1" vertex="1">
          <mxGeometry x="16.45" y="30" width="48" height="48" as="geometry" />
        </mxCell>
        <mxCell id="FU5zcwVCU_c94r31TygK-4" value="Security Group" style="fontStyle=0;verticalAlign=top;align=center;spacingTop=-2;fillColor=#fff2cc;rounded=0;whiteSpace=wrap;html=1;strokeColor=#d6b656;strokeWidth=2;dashed=1;container=1;collapsible=0;expand=0;recursiveResize=0;" parent="1" vertex="1">
          <mxGeometry x="454" y="421.5" width="80" height="120" as="geometry" />
        </mxCell>
        <mxCell id="FU5zcwVCU_c94r31TygK-5" value="" style="outlineConnect=0;dashed=0;verticalLabelPosition=bottom;verticalAlign=top;align=center;html=1;shape=mxgraph.aws3.ec2;fillColor=#F58534;gradientColor=none;" parent="FU5zcwVCU_c94r31TygK-4" vertex="1">
          <mxGeometry x="23.999999999999996" y="74" width="32.9" height="40" as="geometry" />
        </mxCell>
        <mxCell id="FU5zcwVCU_c94r31TygK-6" value="" style="shape=image;html=1;verticalAlign=top;verticalLabelPosition=bottom;labelBackgroundColor=#ffffff;imageAspect=0;aspect=fixed;image=https://cdn2.iconfinder.com/data/icons/nodejs-1/128/nodejs-128.png" parent="FU5zcwVCU_c94r31TygK-4" vertex="1">
          <mxGeometry x="16.45" y="30" width="48" height="48" as="geometry" />
        </mxCell>
        <mxCell id="OXB0Sn-YbdVNyxZLLh_s-3" value="Security Group" style="fontStyle=0;verticalAlign=top;align=center;spacingTop=-2;fillColor=#fff2cc;rounded=0;whiteSpace=wrap;html=1;strokeColor=#d6b656;strokeWidth=2;dashed=1;container=1;collapsible=0;expand=0;recursiveResize=0;" vertex="1" parent="1">
          <mxGeometry x="588" y="421.5" width="80" height="120" as="geometry" />
        </mxCell>
        <mxCell id="OXB0Sn-YbdVNyxZLLh_s-4" value="" style="outlineConnect=0;dashed=0;verticalLabelPosition=bottom;verticalAlign=top;align=center;html=1;shape=mxgraph.aws3.ec2;fillColor=#F58534;gradientColor=none;" vertex="1" parent="OXB0Sn-YbdVNyxZLLh_s-3">
          <mxGeometry x="23.999999999999996" y="74" width="32.9" height="40" as="geometry" />
        </mxCell>
        <mxCell id="OXB0Sn-YbdVNyxZLLh_s-5" value="" style="shape=image;html=1;verticalAlign=top;verticalLabelPosition=bottom;labelBackgroundColor=#ffffff;imageAspect=0;aspect=fixed;image=https://cdn2.iconfinder.com/data/icons/nodejs-1/128/nodejs-128.png" vertex="1" parent="OXB0Sn-YbdVNyxZLLh_s-3">
          <mxGeometry x="16.45" y="30" width="48" height="48" as="geometry" />
        </mxCell>
        <mxCell id="OXB0Sn-YbdVNyxZLLh_s-6" value="Security Group" style="fontStyle=0;verticalAlign=top;align=center;spacingTop=-2;fillColor=#fff2cc;rounded=0;whiteSpace=wrap;html=1;strokeColor=#d6b656;strokeWidth=2;dashed=1;container=1;collapsible=0;expand=0;recursiveResize=0;" vertex="1" parent="1">
          <mxGeometry x="678" y="421.5" width="80" height="120" as="geometry" />
        </mxCell>
        <mxCell id="OXB0Sn-YbdVNyxZLLh_s-7" value="" style="outlineConnect=0;dashed=0;verticalLabelPosition=bottom;verticalAlign=top;align=center;html=1;shape=mxgraph.aws3.ec2;fillColor=#F58534;gradientColor=none;" vertex="1" parent="OXB0Sn-YbdVNyxZLLh_s-6">
          <mxGeometry x="23.999999999999996" y="74" width="32.9" height="40" as="geometry" />
        </mxCell>
        <mxCell id="OXB0Sn-YbdVNyxZLLh_s-8" value="" style="shape=image;html=1;verticalAlign=top;verticalLabelPosition=bottom;labelBackgroundColor=#ffffff;imageAspect=0;aspect=fixed;image=https://cdn2.iconfinder.com/data/icons/nodejs-1/128/nodejs-128.png" vertex="1" parent="OXB0Sn-YbdVNyxZLLh_s-6">
          <mxGeometry x="16.45" y="30" width="48" height="48" as="geometry" />
        </mxCell>
        <mxCell id="OXB0Sn-YbdVNyxZLLh_s-29" value="Sec&lt;br&gt;Group" style="fontStyle=0;verticalAlign=top;align=left;spacingTop=-2;fillColor=#fff2cc;rounded=0;whiteSpace=wrap;html=1;strokeColor=#d6b656;strokeWidth=2;dashed=1;container=1;collapsible=0;expand=0;recursiveResize=0;" vertex="1" parent="1">
          <mxGeometry x="154.11" y="310" width="92.62" height="70" as="geometry" />
        </mxCell>
        <mxCell id="mmzX4yjb0Bl6ZRDBmCqj-15" value="&lt;b&gt;ALB&lt;/b&gt;" style="outlineConnect=0;dashed=0;verticalLabelPosition=bottom;verticalAlign=top;align=right;html=1;shape=mxgraph.aws3.classic_load_balancer;fillColor=#F58534;gradientColor=none;labelPosition=left;" parent="1" vertex="1">
          <mxGeometry x="210" y="320" width="28.75" height="30" as="geometry" />
        </mxCell>
        <mxCell id="mmzX4yjb0Bl6ZRDBmCqj-20" style="edgeStyle=orthogonalEdgeStyle;rounded=0;orthogonalLoop=1;jettySize=auto;html=1;exitX=0.5;exitY=1;exitDx=0;exitDy=0;exitPerimeter=0;entryX=0.5;entryY=0;entryDx=0;entryDy=0;" parent="1" source="mmzX4yjb0Bl6ZRDBmCqj-15" target="mmzX4yjb0Bl6ZRDBmCqj-4" edge="1">
          <mxGeometry relative="1" as="geometry">
            <Array as="points">
              <mxPoint x="224" y="390" />
              <mxPoint x="250" y="390" />
            </Array>
          </mxGeometry>
        </mxCell>
        <mxCell id="mmzX4yjb0Bl6ZRDBmCqj-26" style="edgeStyle=orthogonalEdgeStyle;rounded=0;orthogonalLoop=1;jettySize=auto;html=1;exitX=0.5;exitY=1;exitDx=0;exitDy=0;exitPerimeter=0;entryX=0.5;entryY=0;entryDx=0;entryDy=0;startArrow=none;startFill=0;" parent="1" source="mmzX4yjb0Bl6ZRDBmCqj-15" target="mmzX4yjb0Bl6ZRDBmCqj-1" edge="1">
          <mxGeometry relative="1" as="geometry">
            <Array as="points">
              <mxPoint x="224" y="390" />
              <mxPoint x="130" y="390" />
            </Array>
          </mxGeometry>
        </mxCell>
      </root>
    </mxGraphModel>
  </diagram>
</mxfile>
